<svg xmlns="http://www.w3.org/2000/svg" version="1.1" xmlns:xlink="http://www.w3.org/1999/xlink" xmlns:svgjs="http://svgjs.dev/svgjs" width="1500" height="1500" viewBox="0 0 1500 1500"><rect width="1500" height="1500" fill="#000000"></rect><g transform="matrix(0.6666666666666666,0,0,0.6666666666666666,249.39393939393938,435.99032258064517)"><svg viewBox="0 0 396 248" data-background-color="#000000" preserveAspectRatio="xMidYMid meet" height="939" width="1500" xmlns="http://www.w3.org/2000/svg" xmlns:xlink="http://www.w3.org/1999/xlink"><g id="tight-bounds" transform="matrix(1,0,0,1,0.2400000000000091,0.4000000000000057)"><svg viewBox="0 0 395.52 247.2" height="247.2" width="395.52"><g><svg></svg></g><g><svg viewBox="0 0 395.52 247.2" height="247.2" width="395.52"><g transform="matrix(1,0,0,1,75.54432,78.80891308900524)"><svg viewBox="0 0 244.43135999999998 89.58217382198951" height="89.58217382198951" width="244.43135999999998"><g><svg viewBox="0 0 244.43135999999998 89.58217382198951" height="89.58217382198951" width="244.43135999999998"><g><svg viewBox="0 0 244.43135999999998 89.58217382198951" height="89.58217382198951" width="244.43135999999998"><g id="textblocktransform"><svg viewBox="0 0 244.43135999999998 89.58217382198951" height="89.58217382198951" width="244.43135999999998" id="textblock"><g><svg viewBox="0 0 244.43135999999998 89.58217382198951" height="89.58217382198951" width="244.43135999999998"><g transform="matrix(1,0,0,1,0,0)"><svg width="244.43135999999998" viewBox="1.7999999999999998 -28 76.39 28" height="89.58217382198951" data-palette-color="#ffffff"><path d="M18-12Q18.2-11.2 18.2-10L18.2-10Q18.2-8.85 18-8L18-8Q18.2-7.2 18.2-6L18.2-6Q18.2-4.85 18-4L18-4 16-4Q16.2-3.2 16.2-2L16.2-2Q16.2-0.85 16 0L16 0 4 0Q3.8-0.85 3.8-2L3.8-2Q3.8-3.2 4-4L4-4 2-4Q1.8-4.85 1.8-6L1.8-6Q1.8-7.2 2-8L2-8 6-8Q6.2-7.2 6.2-6L6.2-6Q6.2-4.85 6-4L6-4 14-4Q13.8-4.85 13.8-6L13.8-6Q13.8-7.2 14-8L14-8Q13.8-8.85 13.8-10L13.8-10Q13.8-11.2 14-12L14-12 4-12Q3.8-12.85 3.8-14L3.8-14Q3.8-15.2 4-16L4-16 2-16Q1.8-16.85 1.8-18L1.8-18Q1.8-19.2 2-20L2-20Q1.8-20.85 1.8-22L1.8-22Q1.8-23.2 2-24L2-24 4-24Q3.8-24.85 3.8-26L3.8-26Q3.8-27.2 4-28L4-28 16-28Q16.2-27.2 16.2-26L16.2-26Q16.2-24.85 16-24L16-24 18-24Q18.2-23.2 18.2-22L18.2-22Q18.2-20.85 18-20L18-20 14-20Q13.8-20.85 13.8-22L13.8-22Q13.8-23.2 14-24L14-24 6-24Q6.2-23.2 6.2-22L6.2-22Q6.2-20.85 6-20L6-20Q6.2-19.2 6.2-18L6.2-18Q6.2-16.85 6-16L6-16 16-16Q16.2-15.2 16.2-14L16.2-14Q16.2-12.85 16-12L16-12 18-12ZM38-16Q38.2-15.2 38.2-14L38.2-14Q38.2-12.85 38-12L38-12Q38.2-11.2 38.2-10L38.2-10Q38.2-8.85 38-8L38-8 36-8Q36.2-7.2 36.2-6L36.2-6Q36.2-4.85 36-4L36-4 34-4Q34.2-3.2 34.2-2L34.2-2Q34.2-0.85 34 0L34 0 22 0Q21.8-0.85 21.8-2L21.8-2Q21.8-3.2 22-4L22-4Q21.8-4.85 21.8-6L21.8-6Q21.8-7.2 22-8L22-8Q21.8-8.85 21.8-10L21.8-10Q21.8-11.2 22-12L22-12Q21.8-12.85 21.8-14L21.8-14Q21.8-15.2 22-16L22-16Q21.8-16.85 21.8-18L21.8-18Q21.8-19.2 22-20L22-20Q21.8-20.85 21.8-22L21.8-22Q21.8-23.2 22-24L22-24Q21.8-24.85 21.8-26L21.8-26Q21.8-27.2 22-28L22-28 34-28Q34.2-27.2 34.2-26L34.2-26Q34.2-24.85 34-24L34-24 36-24Q36.2-23.2 36.2-22L36.2-22Q36.2-20.85 36-20L36-20 38-20Q38.2-19.2 38.2-18L38.2-18Q38.2-16.85 38-16L38-16ZM34-8Q33.8-8.85 33.8-10L33.8-10Q33.8-11.2 34-12L34-12Q33.8-12.85 33.8-14L33.8-14Q33.8-15.2 34-16L34-16Q33.8-16.85 33.8-18L33.8-18Q33.8-19.2 34-20L34-20 32-20Q31.8-20.85 31.8-22L31.8-22Q31.8-23.2 32-24L32-24 26-24Q26.2-23.2 26.2-22L26.2-22Q26.2-20.85 26-20L26-20Q26.2-19.2 26.2-18L26.2-18Q26.2-16.85 26-16L26-16Q26.2-15.2 26.2-14L26.2-14Q26.2-12.85 26-12L26-12Q26.2-11.2 26.2-10L26.2-10Q26.2-8.85 26-8L26-8Q26.2-7.2 26.2-6L26.2-6Q26.2-4.85 26-4L26-4 32-4Q31.8-4.85 31.8-6L31.8-6Q31.8-7.2 32-8L32-8 34-8ZM56-12L48-12Q48.2-11.2 48.2-10L48.2-10Q48.2-8.85 48-8L48-8Q48.2-7.2 48.2-6L48.2-6Q48.2-4.85 48-4L48-4 56-4Q56.2-3.2 56.2-2L56.2-2Q56.2-0.85 56 0L56 0 44 0Q43.8-0.85 43.8-2L43.8-2Q43.8-3.2 44-4L44-4Q43.8-4.85 43.8-6L43.8-6Q43.8-7.2 44-8L44-8Q43.8-8.85 43.8-10L43.8-10Q43.8-11.2 44-12L44-12Q43.8-12.85 43.8-14L43.8-14Q43.8-15.2 44-16L44-16Q43.8-16.85 43.8-18L43.8-18Q43.8-19.2 44-20L44-20Q43.8-20.85 43.8-22L43.8-22Q43.8-23.2 44-24L44-24Q43.8-24.85 43.8-26L43.8-26Q43.8-27.2 44-28L44-28 56-28Q56.2-27.2 56.2-26L56.2-26Q56.2-24.85 56-24L56-24 48-24Q48.2-23.2 48.2-22L48.2-22Q48.2-20.85 48-20L48-20Q48.2-19.2 48.2-18L48.2-18Q48.2-16.85 48-16L48-16 56-16Q56.2-15.2 56.2-14L56.2-14Q56.2-12.85 56-12L56-12ZM77.99-24Q78.19-23.2 78.19-22L78.19-22Q78.19-20.85 77.99-20L77.99-20Q78.19-19.2 78.19-18L78.19-18Q78.19-16.85 77.99-16L77.99-16 76.49-16Q76.69-15.2 76.69-14L76.69-14Q76.69-12.85 76.49-12L76.49-12 74.99-12Q75.19-11.2 75.19-10L75.19-10Q75.19-8.85 74.99-8L74.99-8 73.99-8Q74.19-7.2 74.19-6L74.19-6Q74.19-4.85 73.99-4L73.99-4 71.99-4Q72.19-3.2 72.19-2L72.19-2Q72.19-0.85 71.99 0L71.99 0 67.99 0Q67.79-0.85 67.79-2L67.79-2Q67.79-3.2 67.99-4L67.99-4 65.99-4Q65.79-4.85 65.79-6L65.79-6Q65.79-7.2 65.99-8L65.99-8 64.99-8Q64.79-8.85 64.79-10L64.79-10Q64.79-11.2 64.99-12L64.99-12 63.49-12Q63.29-12.85 63.29-14L63.29-14Q63.29-15.2 63.49-16L63.49-16 61.99-16Q61.79-16.85 61.79-18L61.79-18Q61.79-19.2 61.99-20L61.99-20Q61.79-20.85 61.79-22L61.79-22Q61.79-23.2 61.99-24L61.99-24Q61.79-24.85 61.79-26L61.79-26Q61.79-27.2 61.99-28L61.99-28 65.99-28Q66.19-27.2 66.19-26L66.19-26Q66.19-24.85 65.99-24L65.99-24Q66.19-23.2 66.19-22L66.19-22Q66.19-20.85 65.99-20L65.99-20Q66.19-19.2 66.19-18L66.19-18Q66.19-16.85 65.99-16L65.99-16 67.49-16Q67.69-15.2 67.69-14L67.69-14Q67.69-12.85 67.49-12L67.49-12 68.99-12Q69.19-11.2 69.19-10L69.19-10Q69.19-8.85 68.99-8L68.99-8 70.99-8Q70.79-8.85 70.79-10L70.79-10Q70.79-11.2 70.99-12L70.99-12 72.49-12Q72.29-12.85 72.29-14L72.29-14Q72.29-15.2 72.49-16L72.49-16 73.99-16Q73.79-16.85 73.79-18L73.79-18Q73.79-19.2 73.99-20L73.99-20Q73.79-20.85 73.79-22L73.79-22Q73.79-23.2 73.99-24L73.99-24Q73.79-24.85 73.79-26L73.79-26Q73.79-27.2 73.99-28L73.99-28 77.99-28Q78.19-27.2 78.19-26L78.19-26Q78.19-24.85 77.99-24L77.99-24Z" opacity="1" transform="matrix(1,0,0,1,0,0)" fill="#ffffff" class="wordmark-text-0" data-fill-palette-color="primary" id="text-0"></path></svg></g></svg></g></svg></g></svg></g></svg></g></svg></g><path d="M219.372 72.809L219.372 19.422 11.016 19.422 11.016 227.778 219.372 227.778 219.372 174.391 211.293 174.391 211.293 219.7 19.094 219.7 19.094 27.5 211.293 27.5 211.293 72.809Z" fill="#ffffff" stroke="transparent" data-fill-palette-color="tertiary"></path></svg></g><defs></defs></svg><rect width="395.52" height="247.2" fill="none" stroke="none" visibility="hidden"></rect></g></svg></g></svg>